General
Complete name                    : Angels and Demons [Extended Cut] (2009) BRRip 720P (Eng+Hindi)
Format                           : Matroska
File size                        : 2.24 GiB
Duration                         : 2h 26mn
Overall bit rate                 : 2 186 Kbps

Video
ID                               : 1
Format                           : AVC
Format/Info                      : Advanced Video Codec
Format profile                   : High@L4.1
Format settings, CABAC           : Yes
Format settings, ReFrames        : 6 frames
Muxing mode                      : Header stripping
Codec ID                         : V_MPEG4/ISO/AVC
Duration                         : 2h 26mn
Bit rate                         : 1 550 Kbps
Width                            : 1 280 pixels
Height                           : 534 pixels
Display aspect ratio             : 2.35:1
Frame rate                       : 23.976 fps
Color space                      : YUV
Chroma subsampling               : 4:2:0
Bit depth                        : 8 bits
Scan type                        : Progressive
Bits/(Pixel*Frame)               : 0.095
Stream size                      : 1.54 GiB (69%)

Audio #1
ID                               : 2
Format                           : AC-3
Format/Info                      : Audio Coding 3
Mode extension                   : CM (complete main)
Muxing mode                      : Header stripping
Codec ID                         : A_AC3
Duration                         : 2h 26mn
Bit rate mode                    : Constant
Bit rate                         : 320 Kbps
Channel(s)                       : 6 channels
Channel positions                : Front: L C R, Side: L R, LFE
Sampling rate                    : 48.0 KHz
Bit depth                        : 16 bits
Compression mode                 : Lossy
Stream size                      : 336 MiB (15%)
Title                            : nsh168810 (6CH)
Language                         : Hindi

Audio #2
ID                               : 3
Format                           : AC-3
Format/Info                      : Audio Coding 3
Mode extension                   : CM (complete main)
Muxing mode                      : Header stripping
Codec ID                         : A_AC3
Duration                         : 2h 26mn
Bit rate mode                    : Constant
Bit rate                         : 320 Kbps
Channel(s)                       : 6 channels
Channel positions                : Front: L C R, Side: L R, LFE
Sampling rate                    : 48.0 KHz
Bit depth                        : 16 bits
Compression mode                 : Lossy
Stream size                      : 336 MiB (15%)
Title                            : 6CH
Language                         : English


 
http://img52.imageshack.us/img52/5241/angelsanddemons2009exte.jpg 
http://img38.imageshack.us/img38/5241/angelsanddemons2009exte.jpg 
http://img809.imageshack.us/img809/5241/angelsanddemons2009exte.jpg 
http://img594.imageshack.us/img594/5241/angelsanddemons2009exte.jpg 
http://img189.imageshack.us/img189/5241/angelsanddemons2009exte.jpg 
http://img707.imageshack.us/img707/5241/angelsanddemons2009exte.jpg 
http://img263.imageshack.us/img263/5241/angelsanddemons2009exte.jpg
